0
SECTION
2
HEADER
9
$ANGDIR
70
1
9
$AUNITS
70
0
9
$PROJECTNAME
1
TemperatureHumidiy
9
$TDCREATE
40
2460154.86797910
9
$INSUNITS
70
4
0
ENDSEC
0
SECTION
2
ENTITIES
0
POLYLINE
66
1
8
1_copper
10
0.0
20
0.0
30
0.0
70
1
0
VERTEX
8
0
10
13.939078125
20
-22.872703125
30
0
0
VERTEX
8
0
10
14.0021
20
-22.860165625
30
0
0
VERTEX
8
0
10
14.063590625
20
-22.8415125
30
0
0
VERTEX
8
0
10
14.122959375
20
-22.816921875000002
30
0
0
VERTEX
8
0
10
14.179628125
20
-22.786631250000003
30
0
0
VERTEX
8
0
10
14.23305625
20
-22.75093125
30
0
0
VERTEX
8
0
10
14.282728125
20
-22.710165625000002
30
0
0
VERTEX
8
0
10
14.328165625
20
-22.664728125
30
0
0
VERTEX
8
0
10
14.368931250000001
20
-22.615056250000002
30
0
0
VERTEX
8
0
10
14.404631250000001
20
-22.561628125000002
30
0
0
VERTEX
8
0
10
14.434921875
20
-22.504959375000002
30
0
0
VERTEX
8
0
10
14.4595125
20
-22.445590625
30
0
0
VERTEX
8
0
10
14.478165625
20
-22.3841
30
0
0
VERTEX
8
0
10
14.490703125000001
20
-22.321078125
30
0
0
VERTEX
8
0
10
14.497
20
-22.257128125
30
0
0
VERTEX
8
0
10
14.497
20
-22.192871875
30
0
0
VERTEX
8
0
10
14.490703125000001
20
-22.128921875
30
0
0
VERTEX
8
0
10
14.478165625
20
-22.065900000000003
30
0
0
VERTEX
8
0
10
14.4595125
20
-22.004409375
30
0
0
VERTEX
8
0
10
14.434921875
20
-21.945040625
30
0
0
VERTEX
8
0
10
14.404631250000001
20
-21.888371875
30
0
0
VERTEX
8
0
10
14.368931250000001
20
-21.83494375
30
0
0
VERTEX
8
0
10
14.328165625
20
-21.785271875
30
0
0
VERTEX
8
0
10
14.282728125
20
-21.739834375
30
0
0
VERTEX
8
0
10
14.23305625
20
-21.699068750000002
30
0
0
VERTEX
8
0
10
14.179628125
20
-21.66336875
30
0
0
VERTEX
8
0
10
14.122959375
20
-21.633078125
30
0
0
VERTEX
8
0
10
14.063590625
20
-21.608487500000003
30
0
0
VERTEX
8
0
10
14.0021
20
-21.589834375000002
30
0
0
VERTEX
8
0
10
13.939078125
20
-21.577296875000002
30
0
0
VERTEX
8
0
10
13.875128125
20
-21.571
30
0
0
VERTEX
8
0
10
13.810871875
20
-21.571
30
0
0
VERTEX
8
0
10
13.746921875
20
-21.577296875000002
30
0
0
VERTEX
8
0
10
13.683900000000001
20
-21.589834375000002
30
0
0
VERTEX
8
0
10
13.622409375
20
-21.608487500000003
30
0
0
VERTEX
8
0
10
13.563040625000001
20
-21.633078125
30
0
0
VERTEX
8
0
10
13.506371875000001
20
-21.66336875
30
0
0
VERTEX
8
0
10
13.452943750000001
20
-21.699068750000002
30
0
0
VERTEX
8
0
10
13.403271875000002
20
-21.739834375
30
0
0
VERTEX
8
0
10
13.357834375000001
20
-21.785271875
30
0
0
VERTEX
8
0
10
13.31706875
20
-21.83494375
30
0
0
VERTEX
8
0
10
13.28136875
20
-21.888371875
30
0
0
VERTEX
8
0
10
13.251078125000001
20
-21.945040625
30
0
0
VERTEX
8
0
10
13.226487500000001
20
-22.004409375
30
0
0
VERTEX
8
0
10
13.207834375000001
20
-22.065900000000003
30
0
0
VERTEX
8
0
10
13.195296875
20
-22.128921875
30
0
0
VERTEX
8
0
10
13.189
20
-22.192871875
30
0
0
VERTEX
8
0
10
13.189
20
-22.257128125
30
0
0
VERTEX
8
0
10
13.195296875
20
-22.321078125
30
0
0
VERTEX
8
0
10
13.207834375000001
20
-22.3841
30
0
0
VERTEX
8
0
10
13.226487500000001
20
-22.445590625
30
0
0
VERTEX
8
0
10
13.251078125000001
20
-22.504959375000002
30
0
0
VERTEX
8
0
10
13.28136875
20
-22.561628125000002
30
0
0
VERTEX
8
0
10
13.31706875
20
-22.615056250000002
30
0
0
VERTEX
8
0
10
13.357834375000001
20
-22.664728125
30
0
0
VERTEX
8
0
10
13.403271875000002
20
-22.710165625000002
30
0
0
VERTEX
8
0
10
13.452943750000001
20
-22.75093125
30
0
0
VERTEX
8
0
10
13.506371875000001
20
-22.786631250000003
30
0
0
VERTEX
8
0
10
13.563040625000001
20
-22.816921875000002
30
0
0
VERTEX
8
0
10
13.622409375
20
-22.8415125
30
0
0
VERTEX
8
0
10
13.683900000000001
20
-22.860165625
30
0
0
VERTEX
8
0
10
13.746921875
20
-22.872703125
30
0
0
VERTEX
8
0
10
13.810871875
20
-22.879
30
0
0
VERTEX
8
0
10
13.875128125
20
-22.879
30
0
0
SEQEND
0
POLYLINE
66
1
8
16_copper
10
0.0
20
0.0
30
0.0
70
1
0
VERTEX
8
0
10
13.939078125
20
-22.872703125
30
0
0
VERTEX
8
0
10
14.0021
20
-22.860165625
30
0
0
VERTEX
8
0
10
14.063590625
20
-22.8415125
30
0
0
VERTEX
8
0
10
14.122959375
20
-22.816921875000002
30
0
0
VERTEX
8
0
10
14.179628125
20
-22.786631250000003
30
0
0
VERTEX
8
0
10
14.23305625
20
-22.75093125
30
0
0
VERTEX
8
0
10
14.282728125
20
-22.710165625000002
30
0
0
VERTEX
8
0
10
14.328165625
20
-22.664728125
30
0
0
VERTEX
8
0
10
14.368931250000001
20
-22.615056250000002
30
0
0
VERTEX
8
0
10
14.404631250000001
20
-22.561628125000002
30
0
0
VERTEX
8
0
10
14.434921875
20
-22.504959375000002
30
0
0
VERTEX
8
0
10
14.4595125
20
-22.445590625
30
0
0
VERTEX
8
0
10
14.478165625
20
-22.3841
30
0
0
VERTEX
8
0
10
14.490703125000001
20
-22.321078125
30
0
0
VERTEX
8
0
10
14.497
20
-22.257128125
30
0
0
VERTEX
8
0
10
14.497
20
-22.192871875
30
0
0
VERTEX
8
0
10
14.490703125000001
20
-22.128921875
30
0
0
VERTEX
8
0
10
14.478165625
20
-22.065900000000003
30
0
0
VERTEX
8
0
10
14.4595125
20
-22.004409375
30
0
0
VERTEX
8
0
10
14.434921875
20
-21.945040625
30
0
0
VERTEX
8
0
10
14.404631250000001
20
-21.888371875
30
0
0
VERTEX
8
0
10
14.368931250000001
20
-21.83494375
30
0
0
VERTEX
8
0
10
14.328165625
20
-21.785271875
30
0
0
VERTEX
8
0
10
14.282728125
20
-21.739834375
30
0
0
VERTEX
8
0
10
14.23305625
20
-21.699068750000002
30
0
0
VERTEX
8
0
10
14.179628125
20
-21.66336875
30
0
0
VERTEX
8
0
10
14.122959375
20
-21.633078125
30
0
0
VERTEX
8
0
10
14.063590625
20
-21.608487500000003
30
0
0
VERTEX
8
0
10
14.0021
20
-21.589834375000002
30
0
0
VERTEX
8
0
10
13.939078125
20
-21.577296875000002
30
0
0
VERTEX
8
0
10
13.875128125
20
-21.571
30
0
0
VERTEX
8
0
10
13.810871875
20
-21.571
30
0
0
VERTEX
8
0
10
13.746921875
20
-21.577296875000002
30
0
0
VERTEX
8
0
10
13.683900000000001
20
-21.589834375000002
30
0
0
VERTEX
8
0
10
13.622409375
20
-21.608487500000003
30
0
0
VERTEX
8
0
10
13.563040625000001
20
-21.633078125
30
0
0
VERTEX
8
0
10
13.506371875000001
20
-21.66336875
30
0
0
VERTEX
8
0
10
13.452943750000001
20
-21.699068750000002
30
0
0
VERTEX
8
0
10
13.403271875000002
20
-21.739834375
30
0
0
VERTEX
8
0
10
13.357834375000001
20
-21.785271875
30
0
0
VERTEX
8
0
10
13.31706875
20
-21.83494375
30
0
0
VERTEX
8
0
10
13.28136875
20
-21.888371875
30
0
0
VERTEX
8
0
10
13.251078125000001
20
-21.945040625
30
0
0
VERTEX
8
0
10
13.226487500000001
20
-22.004409375
30
0
0
VERTEX
8
0
10
13.207834375000001
20
-22.065900000000003
30
0
0
VERTEX
8
0
10
13.195296875
20
-22.128921875
30
0
0
VERTEX
8
0
10
13.189
20
-22.192871875
30
0
0
VERTEX
8
0
10
13.189
20
-22.257128125
30
0
0
VERTEX
8
0
10
13.195296875
20
-22.321078125
30
0
0
VERTEX
8
0
10
13.207834375000001
20
-22.3841
30
0
0
VERTEX
8
0
10
13.226487500000001
20
-22.445590625
30
0
0
VERTEX
8
0
10
13.251078125000001
20
-22.504959375000002
30
0
0
VERTEX
8
0
10
13.28136875
20
-22.561628125000002
30
0
0
VERTEX
8
0
10
13.31706875
20
-22.615056250000002
30
0
0
VERTEX
8
0
10
13.357834375000001
20
-22.664728125
30
0
0
VERTEX
8
0
10
13.403271875000002
20
-22.710165625000002
30
0
0
VERTEX
8
0
10
13.452943750000001
20
-22.75093125
30
0
0
VERTEX
8
0
10
13.506371875000001
20
-22.786631250000003
30
0
0
VERTEX
8
0
10
13.563040625000001
20
-22.816921875000002
30
0
0
VERTEX
8
0
10
13.622409375
20
-22.8415125
30
0
0
VERTEX
8
0
10
13.683900000000001
20
-22.860165625
30
0
0
VERTEX
8
0
10
13.746921875
20
-22.872703125
30
0
0
VERTEX
8
0
10
13.810871875
20
-22.879
30
0
0
VERTEX
8
0
10
13.875128125
20
-22.879
30
0
0
SEQEND
0
POLYLINE
66
1
8
1_copper
10
0.0
20
0.0
30
0.0
70
1
0
VERTEX
8
0
10
6.166678125000001
20
-22.755103125
30
0
0
VERTEX
8
0
10
6.2297
20
-22.742565625
30
0
0
VERTEX
8
0
10
6.2911906250000005
20
-22.7239125
30
0
0
VERTEX
8
0
10
6.3505593750000005
20
-22.699321875000003
30
0
0
VERTEX
8
0
10
6.4072281250000005
20
-22.66903125
30
0
0
VERTEX
8
0
10
6.46065625
20
-22.63333125
30
0
0
VERTEX
8
0
10
6.510328125
20
-22.592565625000002
30
0
0
VERTEX
8
0
10
6.555765625
20
-22.547128125
30
0
0
VERTEX
8
0
10
6.59653125
20
-22.497456250000003
30
0
0
VERTEX
8
0
10
6.63223125
20
-22.444028125000003
30
0
0
VERTEX
8
0
10
6.64924375
20
-22.412200000000002
30
0
0
VERTEX
8
0
10
10.3886
20
-22.412200000000002
30
0
0
VERTEX
8
0
10
10.3886
20
-22.6949
30
0
0
VERTEX
8
0
10
11.4046
20
-22.6949
30
0
0
VERTEX
8
0
10
11.4046
20
-21.8059
30
0
0
VERTEX
8
0
10
11.201400000000001
20
-21.8059
30
0
0
VERTEX
8
0
10
11.201400000000001
20
-20.2057
30
0
0
VERTEX
8
0
10
11.4046
20
-20.2057
30
0
0
VERTEX
8
0
10
11.4046
20
-20.008771875
30
0
0
VERTEX
8
0
10
11.4253625
20
-19.9936875
30
0
0
VERTEX
8
0
10
13.6493625
20
-17.7696875
30
0
0
VERTEX
8
0
10
13.683900000000001
20
-17.780165625000002
30
0
0
VERTEX
8
0
10
13.746921875
20
-17.792703125
30
0
0
VERTEX
8
0
10
13.810871875
20
-17.799
30
0
0
VERTEX
8
0
10
13.875128125
20
-17.799
30
0
0
VERTEX
8
0
10
13.939078125
20
-17.792703125
30
0
0
VERTEX
8
0
10
14.0021
20
-17.780165625000002
30
0
0
VERTEX
8
0
10
14.063590625
20
-17.761512500000002
30
0
0
VERTEX
8
0
10
14.122959375
20
-17.736921875
30
0
0
VERTEX
8
0
10
14.179628125
20
-17.70663125
30
0
0
VERTEX
8
0
10
14.23305625
20
-17.670931250000002
30
0
0
VERTEX
8
0
10
14.282728125
20
-17.630165625
30
0
0
VERTEX
8
0
10
14.328165625
20
-17.584728125
30
0
0
VERTEX
8
0
10
14.368931250000001
20
-17.53505625
30
0
0
VERTEX
8
0
10
14.404631250000001
20
-17.481628125
30
0
0
VERTEX
8
0
10
14.434921875
20
-17.424959375
30
0
0
VERTEX
8
0
10
14.4595125
20
-17.365590625
30
0
0
VERTEX
8
0
10
14.478165625
20
-17.304100000000002
30
0
0
VERTEX
8
0
10
14.490703125000001
20
-17.241078125
30
0
0
VERTEX
8
0
10
14.497
20
-17.177128125
30
0
0
VERTEX
8
0
10
14.497
20
-17.112871875
30
0
0
VERTEX
8
0
10
14.490703125000001
20
-17.048921875
30
0
0
VERTEX
8
0
10
14.478165625
20
-16.9859
30
0
0
VERTEX
8
0
10
14.4595125
20
-16.924409375
30
0
0
VERTEX
8
0
10
14.434921875
20
-16.865040625000002
30
0
0
VERTEX
8
0
10
14.404631250000001
20
-16.808371875000002
30
0
0
VERTEX
8
0
10
14.368931250000001
20
-16.754943750000002
30
0
0
VERTEX
8
0
10
14.328165625
20
-16.705271875
30
0
0
VERTEX
8
0
10
14.282728125
20
-16.659834375
30
0
0
VERTEX
8
0
10
14.23305625
20
-16.61906875
30
0
0
VERTEX
8
0
10
14.179628125
20
-16.58336875
30
0
0
VERTEX
8
0
10
14.122959375
20
-16.553078125000003
30
0
0
VERTEX
8
0
10
14.063590625
20
-16.5284875
30
0
0
VERTEX
8
0
10
14.0021
20
-16.509834375
30
0
0
VERTEX
8
0
10
13.939078125
20
-16.497296875
30
0
0
VERTEX
8
0
10
13.875128125
20
-16.491
30
0
0
VERTEX
8
0
10
13.810871875
20
-16.491
30
0
0
VERTEX
8
0
10
13.746921875
20
-16.497296875
30
0
0
VERTEX
8
0
10
13.683900000000001
20
-16.509834375
30
0
0
VERTEX
8
0
10
13.622409375
20
-16.5284875
30
0
0
VERTEX
8
0
10
13.563040625000001
20
-16.553078125000003
30
0
0
VERTEX
8
0
10
13.506371875000001
20
-16.58336875
30
0
0
VERTEX
8
0
10
13.452943750000001
20
-16.61906875
30
0
0
VERTEX
8
0
10
13.403271875000002
20
-16.659834375
30
0
0
VERTEX
8
0
10
13.357834375000001
20
-16.705271875
30
0
0
VERTEX
8
0
10
13.31706875
20
-16.754943750000002
30
0
0
VERTEX
8
0
10
13.28136875
20
-16.808371875000002
30
0
0
VERTEX
8
0
10
13.251078125000001
20
-16.865040625000002
30
0
0
VERTEX
8
0
10
13.226487500000001
20
-16.924409375
30
0
0
VERTEX
8
0
10
13.207834375000001
20
-16.9859
30
0
0
VERTEX
8
0
10
13.195296875
20
-17.048921875
30
0
0
VERTEX
8
0
10
13.189
20
-17.112871875
30
0
0
VERTEX
8
0
10
13.189
20
-17.177128125
30
0
0
VERTEX
8
0
10
13.195296875
20
-17.241078125
30
0
0
VERTEX
8
0
10
13.207834375000001
20
-17.304100000000002
30
0
0
VERTEX
8
0
10
13.218312500000001
20
-17.3386375
30
0
0
VERTEX
8
0
10
11.240250000000001
20
-19.3167
30
0
0
VERTEX
8
0
10
10.3886
20
-19.3167
30
0
0
VERTEX
8
0
10
10.3886
20
-20.2057
30
0
0
VERTEX
8
0
10
10.591800000000001
20
-20.2057
30
0
0
VERTEX
8
0
10
10.591800000000001
20
-21.8026
30
0
0
VERTEX
8
0
10
6.64924375
20
-21.8026
30
0
0
VERTEX
8
0
10
6.63223125
20
-21.770771875
30
0
0
VERTEX
8
0
10
6.59653125
20
-21.71734375
30
0
0
VERTEX
8
0
10
6.555765625
20
-21.667671875
30
0
0
VERTEX
8
0
10
6.510328125
20
-21.622234375
30
0
0
VERTEX
8
0
10
6.46065625
20
-21.581468750000003
30
0
0
VERTEX
8
0
10
6.4072281250000005
20
-21.54576875
30
0
0
VERTEX
8
0
10
6.3505593750000005
20
-21.515478125
30
0
0
VERTEX
8
0
10
6.2911906250000005
20
-21.4908875
30
0
0
VERTEX
8
0
10
6.2297
20
-21.472234375
30
0
0
VERTEX
8
0
10
6.166678125000001
20
-21.459696875000002
30
0
0
VERTEX
8
0
10
6.1027281250000005
20
-21.453400000000002
30
0
0
VERTEX
8
0
10
6.038471875
20
-21.453400000000002
30
0
0
VERTEX
8
0
10
5.974521875000001
20
-21.459696875000002
30
0
0
VERTEX
8
0
10
5.9115
20
-21.472234375
30
0
0
VERTEX
8
0
10
5.850009375
20
-21.4908875
30
0
0
VERTEX
8
0
10
5.790640625
20
-21.515478125
30
0
0
VERTEX
8
0
10
5.733971875
20
-21.54576875
30
0
0
VERTEX
8
0
10
5.68054375
20
-21.581468750000003
30
0
0
VERTEX
8
0
10
5.630871875
20
-21.622234375
30
0
0
VERTEX
8
0
10
5.585434375
20
-21.667671875
30
0
0
VERTEX
8
0
10
5.5446687500000005
20
-21.71734375
30
0
0
VERTEX
8
0
10
5.50896875
20
-21.770771875
30
0
0
VERTEX
8
0
10
5.478678125
20
-21.827440625
30
0
0
VERTEX
8
0
10
5.4540875
20
-21.886809375000002
30
0
0
VERTEX
8
0
10
5.435434375
20
-21.9483
30
0
0
VERTEX
8
0
10
5.422896875
20
-22.011321875
30
0
0
VERTEX
8
0
10
5.4166
20
-22.075271875000002
30
0
0
VERTEX
8
0
10
5.4166
20
-22.139528125000002
30
0
0
VERTEX
8
0
10
5.422896875
20
-22.203478125
30
0
0
VERTEX
8
0
10
5.435434375
20
-22.2665
30
0
0
VERTEX
8
0
10
5.4540875
20
-22.327990625
30
0
0
VERTEX
8
0
10
5.478678125
20
-22.387359375000003
30
0
0
VERTEX
8
0
10
5.50896875
20
-22.444028125000003
30
0
0
VERTEX
8
0
10
5.5446687500000005
20
-22.497456250000003
30
0
0
VERTEX
8
0
10
5.585434375
20
-22.547128125
30
0
0
VERTEX
8
0
10
5.630871875
20
-22.592565625000002
30
0
0
VERTEX
8
0
10
5.68054375
20
-22.63333125
30
0
0
VERTEX
8
0
10
5.733971875
20
-22.66903125
30
0
0
VERTEX
8
0
10
5.790640625
20
-22.699321875000003
30
0
0
VERTEX
8
0
10
5.850009375
20
-22.7239125
30
0
0
VERTEX
8
0
10
5.9115
20
-22.742565625
30
0
0
VERTEX
8
0
10
5.974521875000001
20
-22.755103125
30
0
0
VERTEX
8
0
10
6.038471875
20
-22.761400000000002
30
0
0
VERTEX
8
0
10
6.1027281250000005
20
-22.761400000000002
30
0
0
SEQEND
0
POLYLINE
66
1
8
16_copper
10
0.0
20
0.0
30
0.0
70
1
0
VERTEX
8
0
10
13.939078125
20
-17.792703125
30
0
0
VERTEX
8
0
10
14.0021
20
-17.780165625000002
30
0
0
VERTEX
8
0
10
14.063590625
20
-17.761512500000002
30
0
0
VERTEX
8
0
10
14.122959375
20
-17.736921875
30
0
0
VERTEX
8
0
10
14.179628125
20
-17.70663125
30
0
0
VERTEX
8
0
10
14.23305625
20
-17.670931250000002
30
0
0
VERTEX
8
0
10
14.282728125
20
-17.630165625
30
0
0
VERTEX
8
0
10
14.328165625
20
-17.584728125
30
0
0
VERTEX
8
0
10
14.368931250000001
20
-17.53505625
30
0
0
VERTEX
8
0
10
14.404631250000001
20
-17.481628125
30
0
0
VERTEX
8
0
10
14.434921875
20
-17.424959375
30
0
0
VERTEX
8
0
10
14.4595125
20
-17.365590625
30
0
0
VERTEX
8
0
10
14.478165625
20
-17.304100000000002
30
0
0
VERTEX
8
0
10
14.490703125000001
20
-17.241078125
30
0
0
VERTEX
8
0
10
14.497
20
-17.177128125
30
0
0
VERTEX
8
0
10
14.497
20
-17.112871875
30
0
0
VERTEX
8
0
10
14.490703125000001
20
-17.048921875
30
0
0
VERTEX
8
0
10
14.478165625
20
-16.9859
30
0
0
VERTEX
8
0
10
14.4595125
20
-16.924409375
30
0
0
VERTEX
8
0
10
14.434921875
20
-16.865040625000002
30
0
0
VERTEX
8
0
10
14.404631250000001
20
-16.808371875000002
30
0
0
VERTEX
8
0
10
14.368931250000001
20
-16.754943750000002
30
0
0
VERTEX
8
0
10
14.328165625
20
-16.705271875
30
0
0
VERTEX
8
0
10
14.282728125
20
-16.659834375
30
0
0
VERTEX
8
0
10
14.23305625
20
-16.61906875
30
0
0
VERTEX
8
0
10
14.179628125
20
-16.58336875
30
0
0
VERTEX
8
0
10
14.122959375
20
-16.553078125000003
30
0
0
VERTEX
8
0
10
14.063590625
20
-16.5284875
30
0
0
VERTEX
8
0
10
14.0021
20
-16.509834375
30
0
0
VERTEX
8
0
10
13.939078125
20
-16.497296875
30
0
0
VERTEX
8
0
10
13.875128125
20
-16.491
30
0
0
VERTEX
8
0
10
13.810871875
20
-16.491
30
0
0
VERTEX
8
0
10
13.746921875
20
-16.497296875
30
0
0
VERTEX
8
0
10
13.683900000000001
20
-16.509834375
30
0
0
VERTEX
8
0
10
13.622409375
20
-16.5284875
30
0
0
VERTEX
8
0
10
13.563040625000001
20
-16.553078125000003
30
0
0
VERTEX
8
0
10
13.506371875000001
20
-16.58336875
30
0
0
VERTEX
8
0
10
13.452943750000001
20
-16.61906875
30
0
0
VERTEX
8
0
10
13.403271875000002
20
-16.659834375
30
0
0
VERTEX
8
0
10
13.357834375000001
20
-16.705271875
30
0
0
VERTEX
8
0
10
13.31706875
20
-16.754943750000002
30
0
0
VERTEX
8
0
10
13.28136875
20
-16.808371875000002
30
0
0
VERTEX
8
0
10
13.251078125000001
20
-16.865040625000002
30
0
0
VERTEX
8
0
10
13.226487500000001
20
-16.924409375
30
0
0
VERTEX
8
0
10
13.207834375000001
20
-16.9859
30
0
0
VERTEX
8
0
10
13.195296875
20
-17.048921875
30
0
0
VERTEX
8
0
10
13.189
20
-17.112871875
30
0
0
VERTEX
8
0
10
13.189
20
-17.177128125
30
0
0
VERTEX
8
0
10
13.195296875
20
-17.241078125
30
0
0
VERTEX
8
0
10
13.207834375000001
20
-17.304100000000002
30
0
0
VERTEX
8
0
10
13.226487500000001
20
-17.365590625
30
0
0
VERTEX
8
0
10
13.251078125000001
20
-17.424959375
30
0
0
VERTEX
8
0
10
13.28136875
20
-17.481628125
30
0
0
VERTEX
8
0
10
13.31706875
20
-17.53505625
30
0
0
VERTEX
8
0
10
13.357834375000001
20
-17.584728125
30
0
0
VERTEX
8
0
10
13.403271875000002
20
-17.630165625
30
0
0
VERTEX
8
0
10
13.452943750000001
20
-17.670931250000002
30
0
0
VERTEX
8
0
10
13.506371875000001
20
-17.70663125
30
0
0
VERTEX
8
0
10
13.563040625000001
20
-17.736921875
30
0
0
VERTEX
8
0
10
13.622409375
20
-17.761512500000002
30
0
0
VERTEX
8
0
10
13.683900000000001
20
-17.780165625000002
30
0
0
VERTEX
8
0
10
13.746921875
20
-17.792703125
30
0
0
VERTEX
8
0
10
13.810871875
20
-17.799
30
0
0
VERTEX
8
0
10
13.875128125
20
-17.799
30
0
0
SEQEND
0
POLYLINE
66
1
8
16_copper
10
0.0
20
0.0
30
0.0
70
1
0
VERTEX
8
0
10
6.166678125000001
20
-22.755103125
30
0
0
VERTEX
8
0
10
6.2297
20
-22.742565625
30
0
0
VERTEX
8
0
10
6.2911906250000005
20
-22.7239125
30
0
0
VERTEX
8
0
10
6.3505593750000005
20
-22.699321875000003
30
0
0
VERTEX
8
0
10
6.4072281250000005
20
-22.66903125
30
0
0
VERTEX
8
0
10
6.46065625
20
-22.63333125
30
0
0
VERTEX
8
0
10
6.510328125
20
-22.592565625000002
30
0
0
VERTEX
8
0
10
6.555765625
20
-22.547128125
30
0
0
VERTEX
8
0
10
6.59653125
20
-22.497456250000003
30
0
0
VERTEX
8
0
10
6.63223125
20
-22.444028125000003
30
0
0
VERTEX
8
0
10
6.662521875
20
-22.387359375000003
30
0
0
VERTEX
8
0
10
6.6871125000000005
20
-22.327990625
30
0
0
VERTEX
8
0
10
6.705765625000001
20
-22.2665
30
0
0
VERTEX
8
0
10
6.718303125
20
-22.203478125
30
0
0
VERTEX
8
0
10
6.724600000000001
20
-22.139528125000002
30
0
0
VERTEX
8
0
10
6.724600000000001
20
-22.075271875000002
30
0
0
VERTEX
8
0
10
6.718303125
20
-22.011321875
30
0
0
VERTEX
8
0
10
6.705765625000001
20
-21.9483
30
0
0
VERTEX
8
0
10
6.6871125000000005
20
-21.886809375000002
30
0
0
VERTEX
8
0
10
6.662521875
20
-21.827440625
30
0
0
VERTEX
8
0
10
6.63223125
20
-21.770771875
30
0
0
VERTEX
8
0
10
6.59653125
20
-21.71734375
30
0
0
VERTEX
8
0
10
6.555765625
20
-21.667671875
30
0
0
VERTEX
8
0
10
6.510328125
20
-21.622234375
30
0
0
VERTEX
8
0
10
6.46065625
20
-21.581468750000003
30
0
0
VERTEX
8
0
10
6.4072281250000005
20
-21.54576875
30
0
0
VERTEX
8
0
10
6.3505593750000005
20
-21.515478125
30
0
0
VERTEX
8
0
10
6.2911906250000005
20
-21.4908875
30
0
0
VERTEX
8
0
10
6.2297
20
-21.472234375
30
0
0
VERTEX
8
0
10
6.166678125000001
20
-21.459696875000002
30
0
0
VERTEX
8
0
10
6.1027281250000005
20
-21.453400000000002
30
0
0
VERTEX
8
0
10
6.038471875
20
-21.453400000000002
30
0
0
VERTEX
8
0
10
5.974521875000001
20
-21.459696875000002
30
0
0
VERTEX
8
0
10
5.9115
20
-21.472234375
30
0
0
VERTEX
8
0
10
5.850009375
20
-21.4908875
30
0
0
VERTEX
8
0
10
5.790640625
20
-21.515478125
30
0
0
VERTEX
8
0
10
5.733971875
20
-21.54576875
30
0
0
VERTEX
8
0
10
5.68054375
20
-21.581468750000003
30
0
0
VERTEX
8
0
10
5.630871875
20
-21.622234375
30
0
0
VERTEX
8
0
10
5.585434375
20
-21.667671875
30
0
0
VERTEX
8
0
10
5.5446687500000005
20
-21.71734375
30
0
0
VERTEX
8
0
10
5.50896875
20
-21.770771875
30
0
0
VERTEX
8
0
10
5.478678125
20
-21.827440625
30
0
0
VERTEX
8
0
10
5.4540875
20
-21.886809375000002
30
0
0
VERTEX
8
0
10
5.435434375
20
-21.9483
30
0
0
VERTEX
8
0
10
5.422896875
20
-22.011321875
30
0
0
VERTEX
8
0
10
5.4166
20
-22.075271875000002
30
0
0
VERTEX
8
0
10
5.4166
20
-22.139528125000002
30
0
0
VERTEX
8
0
10
5.422896875
20
-22.203478125
30
0
0
VERTEX
8
0
10
5.435434375
20
-22.2665
30
0
0
VERTEX
8
0
10
5.4540875
20
-22.327990625
30
0
0
VERTEX
8
0
10
5.478678125
20
-22.387359375000003
30
0
0
VERTEX
8
0
10
5.50896875
20
-22.444028125000003
30
0
0
VERTEX
8
0
10
5.5446687500000005
20
-22.497456250000003
30
0
0
VERTEX
8
0
10
5.585434375
20
-22.547128125
30
0
0
VERTEX
8
0
10
5.630871875
20
-22.592565625000002
30
0
0
VERTEX
8
0
10
5.68054375
20
-22.63333125
30
0
0
VERTEX
8
0
10
5.733971875
20
-22.66903125
30
0
0
VERTEX
8
0
10
5.790640625
20
-22.699321875000003
30
0
0
VERTEX
8
0
10
5.850009375
20
-22.7239125
30
0
0
VERTEX
8
0
10
5.9115
20
-22.742565625
30
0
0
VERTEX
8
0
10
5.974521875000001
20
-22.755103125
30
0
0
VERTEX
8
0
10
6.038471875
20
-22.761400000000002
30
0
0
VERTEX
8
0
10
6.1027281250000005
20
-22.761400000000002
30
0
0
SEQEND
0
POLYLINE
66
1
8
1_copper
10
0.0
20
0.0
30
0.0
70
1
0
VERTEX
8
0
10
13.266150000000001
20
-23.767712500000002
30
0
0
VERTEX
8
0
10
13.223403125
20
-23.74593125
30
0
0
VERTEX
8
0
10
13.177775
20
-23.73110625
30
0
0
VERTEX
8
0
10
13.130387500000001
20
-23.7236
30
0
0
VERTEX
8
0
10
11.4046
20
-23.7236
30
0
0
VERTEX
8
0
10
11.4046
20
-23.5839
30
0
0
VERTEX
8
0
10
10.3886
20
-23.5839
30
0
0
VERTEX
8
0
10
10.3886
20
-23.8026
30
0
0
VERTEX
8
0
10
6.64924375
20
-23.8026
30
0
0
VERTEX
8
0
10
6.63223125
20
-23.770771875
30
0
0
VERTEX
8
0
10
6.59653125
20
-23.71734375
30
0
0
VERTEX
8
0
10
6.555765625
20
-23.667671875
30
0
0
VERTEX
8
0
10
6.510328125
20
-23.622234375
30
0
0
VERTEX
8
0
10
6.46065625
20
-23.581468750000003
30
0
0
VERTEX
8
0
10
6.4072281250000005
20
-23.54576875
30
0
0
VERTEX
8
0
10
6.3505593750000005
20
-23.515478125
30
0
0
VERTEX
8
0
10
6.2911906250000005
20
-23.4908875
30
0
0
VERTEX
8
0
10
6.2297
20
-23.472234375000003
30
0
0
VERTEX
8
0
10
6.166678125000001
20
-23.459696875000002
30
0
0
VERTEX
8
0
10
6.1027281250000005
20
-23.453400000000002
30
0
0
VERTEX
8
0
10
6.038471875
20
-23.453400000000002
30
0
0
VERTEX
8
0
10
5.974521875000001
20
-23.459696875000002
30
0
0
VERTEX
8
0
10
5.9115
20
-23.472234375000003
30
0
0
VERTEX
8
0
10
5.850009375
20
-23.4908875
30
0
0
VERTEX
8
0
10
5.790640625
20
-23.515478125
30
0
0
VERTEX
8
0
10
5.733971875
20
-23.54576875
30
0
0
VERTEX
8
0
10
5.68054375
20
-23.581468750000003
30
0
0
VERTEX
8
0
10
5.630871875
20
-23.622234375
30
0
0
VERTEX
8
0
10
5.585434375
20
-23.667671875
30
0
0
VERTEX
8
0
10
5.5446687500000005
20
-23.71734375
30
0
0
VERTEX
8
0
10
5.50896875
20
-23.770771875
30
0
0
VERTEX
8
0
10
5.478678125
20
-23.827440625
30
0
0
VERTEX
8
0
10
5.4540875
20
-23.886809375000002
30
0
0
VERTEX
8
0
10
5.435434375
20
-23.9483
30
0
0
VERTEX
8
0
10
5.422896875
20
-24.011321875
30
0
0
VERTEX
8
0
10
5.4166
20
-24.075271875000002
30
0
0
VERTEX
8
0
10
5.4166
20
-24.139528125000002
30
0
0
VERTEX
8
0
10
5.422896875
20
-24.203478125
30
0
0
VERTEX
8
0
10
5.435434375
20
-24.2665
30
0
0
VERTEX
8
0
10
5.4540875
20
-24.327990625
30
0
0
VERTEX
8
0
10
5.478678125
20
-24.387359375000003
30
0
0
VERTEX
8
0
10
5.50896875
20
-24.444028125000003
30
0
0
VERTEX
8
0
10
5.5446687500000005
20
-24.497456250000003
30
0
0
VERTEX
8
0
10
5.585434375
20
-24.547128125
30
0
0
VERTEX
8
0
10
5.630871875
20
-24.592565625000002
30
0
0
VERTEX
8
0
10
5.68054375
20
-24.63333125
30
0
0
VERTEX
8
0
10
5.733971875
20
-24.66903125
30
0
0
VERTEX
8
0
10
5.790640625
20
-24.699321875000003
30
0
0
VERTEX
8
0
10
5.850009375
20
-24.7239125
30
0
0
VERTEX
8
0
10
5.9115
20
-24.742565625
30
0
0
VERTEX
8
0
10
5.974521875000001
20
-24.755103125
30
0
0
VERTEX
8
0
10
6.038471875
20
-24.761400000000002
30
0
0
VERTEX
8
0
10
6.1027281250000005
20
-24.761400000000002
30
0
0
VERTEX
8
0
10
6.166678125000001
20
-24.755103125
30
0
0
VERTEX
8
0
10
6.2297
20
-24.742565625
30
0
0
VERTEX
8
0
10
6.2911906250000005
20
-24.7239125
30
0
0
VERTEX
8
0
10
6.3505593750000005
20
-24.699321875000003
30
0
0
VERTEX
8
0
10
6.4072281250000005
20
-24.66903125
30
0
0
VERTEX
8
0
10
6.46065625
20
-24.63333125
30
0
0
VERTEX
8
0
10
6.510328125
20
-24.592565625000002
30
0
0
VERTEX
8
0
10
6.555765625
20
-24.547128125
30
0
0
VERTEX
8
0
10
6.59653125
20
-24.497456250000003
30
0
0
VERTEX
8
0
10
6.63223125
20
-24.444028125000003
30
0
0
VERTEX
8
0
10
6.64924375
20
-24.412200000000002
30
0
0
VERTEX
8
0
10
10.3886
20
-24.412200000000002
30
0
0
VERTEX
8
0
10
10.3886
20
-24.472900000000003
30
0
0
VERTEX
8
0
10
11.4046
20
-24.472900000000003
30
0
0
VERTEX
8
0
10
11.4046
20
-24.3332
30
0
0
VERTEX
8
0
10
12.98015
20
-24.3332
30
0
0
VERTEX
8
0
10
13.218312500000001
20
-24.571362500000003
30
0
0
VERTEX
8
0
10
13.207834375000001
20
-24.605900000000002
30
0
0
VERTEX
8
0
10
13.195296875
20
-24.668921875000002
30
0
0
VERTEX
8
0
10
13.189
20
-24.732871875
30
0
0
VERTEX
8
0
10
13.189
20
-24.797128125
30
0
0
VERTEX
8
0
10
13.195296875
20
-24.861078125000002
30
0
0
VERTEX
8
0
10
13.207834375000001
20
-24.924100000000003
30
0
0
VERTEX
8
0
10
13.226487500000001
20
-24.985590625
30
0
0
VERTEX
8
0
10
13.251078125000001
20
-25.044959375
30
0
0
VERTEX
8
0
10
13.28136875
20
-25.101628125
30
0
0
VERTEX
8
0
10
13.31706875
20
-25.15505625
30
0
0
VERTEX
8
0
10
13.357834375000001
20
-25.204728125000003
30
0
0
VERTEX
8
0
10
13.403271875000002
20
-25.250165625
30
0
0
VERTEX
8
0
10
13.452943750000001
20
-25.29093125
30
0
0
VERTEX
8
0
10
13.506371875000001
20
-25.326631250000002
30
0
0
VERTEX
8
0
10
13.563040625000001
20
-25.356921875
30
0
0
VERTEX
8
0
10
13.622409375
20
-25.3815125
30
0
0
VERTEX
8
0
10
13.683900000000001
20
-25.400165625
30
0
0
VERTEX
8
0
10
13.746921875
20
-25.412703125
30
0
0
VERTEX
8
0
10
13.810871875
20
-25.419
30
0
0
VERTEX
8
0
10
13.875128125
20
-25.419
30
0
0
VERTEX
8
0
10
13.939078125
20
-25.412703125
30
0
0
VERTEX
8
0
10
14.0021
20
-25.400165625
30
0
0
VERTEX
8
0
10
14.063590625
20
-25.3815125
30
0
0
VERTEX
8
0
10
14.122959375
20
-25.356921875
30
0
0
VERTEX
8
0
10
14.179628125
20
-25.326631250000002
30
0
0
VERTEX
8
0
10
14.23305625
20
-25.29093125
30
0
0
VERTEX
8
0
10
14.282728125
20
-25.250165625
30
0
0
VERTEX
8
0
10
14.328165625
20
-25.204728125000003
30
0
0
VERTEX
8
0
10
14.368931250000001
20
-25.15505625
30
0
0
VERTEX
8
0
10
14.404631250000001
20
-25.101628125
30
0
0
VERTEX
8
0
10
14.434921875
20
-25.044959375
30
0
0
VERTEX
8
0
10
14.4595125
20
-24.985590625
30
0
0
VERTEX
8
0
10
14.478165625
20
-24.924100000000003
30
0
0
VERTEX
8
0
10
14.490703125000001
20
-24.861078125000002
30
0
0
VERTEX
8
0
10
14.497
20
-24.797128125
30
0
0
VERTEX
8
0
10
14.497
20
-24.732871875
30
0
0
VERTEX
8
0
10
14.490703125000001
20
-24.668921875000002
30
0
0
VERTEX
8
0
10
14.478165625
20
-24.605900000000002
30
0
0
VERTEX
8
0
10
14.4595125
20
-24.544409375
30
0
0
VERTEX
8
0
10
14.434921875
20
-24.485040625
30
0
0
VERTEX
8
0
10
14.404631250000001
20
-24.428371875
30
0
0
VERTEX
8
0
10
14.368931250000001
20
-24.37494375
30
0
0
VERTEX
8
0
10
14.328165625
20
-24.325271875000002
30
0
0
VERTEX
8
0
10
14.282728125
20
-24.279834375
30
0
0
VERTEX
8
0
10
14.23305625
20
-24.23906875
30
0
0
VERTEX
8
0
10
14.179628125
20
-24.203368750000003
30
0
0
VERTEX
8
0
10
14.122959375
20
-24.173078125
30
0
0
VERTEX
8
0
10
14.063590625
20
-24.1484875
30
0
0
VERTEX
8
0
10
14.0021
20
-24.129834375
30
0
0
VERTEX
8
0
10
13.939078125
20
-24.117296875
30
0
0
VERTEX
8
0
10
13.875128125
20
-24.111
30
0
0
VERTEX
8
0
10
13.810871875
20
-24.111
30
0
0
VERTEX
8
0
10
13.746921875
20
-24.117296875
30
0
0
VERTEX
8
0
10
13.683900000000001
20
-24.129834375
30
0
0
VERTEX
8
0
10
13.6493625
20
-24.1403125
30
0
0
VERTEX
8
0
10
13.3049625
20
-23.7959125
30
0
0
SEQEND
0
POLYLINE
66
1
8
16_copper
10
0.0
20
0.0
30
0.0
70
1
0
VERTEX
8
0
10
6.166678125000001
20
-24.755103125
30
0
0
VERTEX
8
0
10
6.2297
20
-24.742565625
30
0
0
VERTEX
8
0
10
6.2911906250000005
20
-24.7239125
30
0
0
VERTEX
8
0
10
6.3505593750000005
20
-24.699321875000003
30
0
0
VERTEX
8
0
10
6.4072281250000005
20
-24.66903125
30
0
0
VERTEX
8
0
10
6.46065625
20
-24.63333125
30
0
0
VERTEX
8
0
10
6.510328125
20
-24.592565625000002
30
0
0
VERTEX
8
0
10
6.555765625
20
-24.547128125
30
0
0
VERTEX
8
0
10
6.59653125
20
-24.497456250000003
30
0
0
VERTEX
8
0
10
6.63223125
20
-24.444028125000003
30
0
0
VERTEX
8
0
10
6.662521875
20
-24.387359375000003
30
0
0
VERTEX
8
0
10
6.6871125000000005
20
-24.327990625
30
0
0
VERTEX
8
0
10
6.705765625000001
20
-24.2665
30
0
0
VERTEX
8
0
10
6.718303125
20
-24.203478125
30
0
0
VERTEX
8
0
10
6.724600000000001
20
-24.139528125000002
30
0
0
VERTEX
8
0
10
6.724600000000001
20
-24.075271875000002
30
0
0
VERTEX
8
0
10
6.718303125
20
-24.011321875
30
0
0
VERTEX
8
0
10
6.705765625000001
20
-23.9483
30
0
0
VERTEX
8
0
10
6.6871125000000005
20
-23.886809375000002
30
0
0
VERTEX
8
0
10
6.662521875
20
-23.827440625
30
0
0
VERTEX
8
0
10
6.63223125
20
-23.770771875
30
0
0
VERTEX
8
0
10
6.59653125
20
-23.71734375
30
0
0
VERTEX
8
0
10
6.555765625
20
-23.667671875
30
0
0
VERTEX
8
0
10
6.510328125
20
-23.622234375
30
0
0
VERTEX
8
0
10
6.46065625
20
-23.581468750000003
30
0
0
VERTEX
8
0
10
6.4072281250000005
20
-23.54576875
30
0
0
VERTEX
8
0
10
6.3505593750000005
20
-23.515478125
30
0
0
VERTEX
8
0
10
6.2911906250000005
20
-23.4908875
30
0
0
VERTEX
8
0
10
6.2297
20
-23.472234375000003
30
0
0
VERTEX
8
0
10
6.166678125000001
20
-23.459696875000002
30
0
0
VERTEX
8
0
10
6.1027281250000005
20
-23.453400000000002
30
0
0
VERTEX
8
0
10
6.038471875
20
-23.453400000000002
30
0
0
VERTEX
8
0
10
5.974521875000001
20
-23.459696875000002
30
0
0
VERTEX
8
0
10
5.9115
20
-23.472234375000003
30
0
0
VERTEX
8
0
10
5.850009375
20
-23.4908875
30
0
0
VERTEX
8
0
10
5.790640625
20
-23.515478125
30
0
0
VERTEX
8
0
10
5.733971875
20
-23.54576875
30
0
0
VERTEX
8
0
10
5.68054375
20
-23.581468750000003
30
0
0
VERTEX
8
0
10
5.630871875
20
-23.622234375
30
0
0
VERTEX
8
0
10
5.585434375
20
-23.667671875
30
0
0
VERTEX
8
0
10
5.5446687500000005
20
-23.71734375
30
0
0
VERTEX
8
0
10
5.50896875
20
-23.770771875
30
0
0
VERTEX
8
0
10
5.478678125
20
-23.827440625
30
0
0
VERTEX
8
0
10
5.4540875
20
-23.886809375000002
30
0
0
VERTEX
8
0
10
5.435434375
20
-23.9483
30
0
0
VERTEX
8
0
10
5.422896875
20
-24.011321875
30
0
0
VERTEX
8
0
10
5.4166
20
-24.075271875000002
30
0
0
VERTEX
8
0
10
5.4166
20
-24.139528125000002
30
0
0
VERTEX
8
0
10
5.422896875
20
-24.203478125
30
0
0
VERTEX
8
0
10
5.435434375
20
-24.2665
30
0
0
VERTEX
8
0
10
5.4540875
20
-24.327990625
30
0
0
VERTEX
8
0
10
5.478678125
20
-24.387359375000003
30
0
0
VERTEX
8
0
10
5.50896875
20
-24.444028125000003
30
0
0
VERTEX
8
0
10
5.5446687500000005
20
-24.497456250000003
30
0
0
VERTEX
8
0
10
5.585434375
20
-24.547128125
30
0
0
VERTEX
8
0
10
5.630871875
20
-24.592565625000002
30
0
0
VERTEX
8
0
10
5.68054375
20
-24.63333125
30
0
0
VERTEX
8
0
10
5.733971875
20
-24.66903125
30
0
0
VERTEX
8
0
10
5.790640625
20
-24.699321875000003
30
0
0
VERTEX
8
0
10
5.850009375
20
-24.7239125
30
0
0
VERTEX
8
0
10
5.9115
20
-24.742565625
30
0
0
VERTEX
8
0
10
5.974521875000001
20
-24.755103125
30
0
0
VERTEX
8
0
10
6.038471875
20
-24.761400000000002
30
0
0
VERTEX
8
0
10
6.1027281250000005
20
-24.761400000000002
30
0
0
SEQEND
0
POLYLINE
66
1
8
16_copper
10
0.0
20
0.0
30
0.0
70
1
0
VERTEX
8
0
10
13.939078125
20
-25.412703125
30
0
0
VERTEX
8
0
10
14.0021
20
-25.400165625
30
0
0
VERTEX
8
0
10
14.063590625
20
-25.3815125
30
0
0
VERTEX
8
0
10
14.122959375
20
-25.356921875
30
0
0
VERTEX
8
0
10
14.179628125
20
-25.326631250000002
30
0
0
VERTEX
8
0
10
14.23305625
20
-25.29093125
30
0
0
VERTEX
8
0
10
14.282728125
20
-25.250165625
30
0
0
VERTEX
8
0
10
14.328165625
20
-25.204728125000003
30
0
0
VERTEX
8
0
10
14.368931250000001
20
-25.15505625
30
0
0
VERTEX
8
0
10
14.404631250000001
20
-25.101628125
30
0
0
VERTEX
8
0
10
14.434921875
20
-25.044959375
30
0
0
VERTEX
8
0
10
14.4595125
20
-24.985590625
30
0
0
VERTEX
8
0
10
14.478165625
20
-24.924100000000003
30
0
0
VERTEX
8
0
10
14.490703125000001
20
-24.861078125000002
30
0
0
VERTEX
8
0
10
14.497
20
-24.797128125
30
0
0
VERTEX
8
0
10
14.497
20
-24.732871875
30
0
0
VERTEX
8
0
10
14.490703125000001
20
-24.668921875000002
30
0
0
VERTEX
8
0
10
14.478165625
20
-24.605900000000002
30
0
0
VERTEX
8
0
10
14.4595125
20
-24.544409375
30
0
0
VERTEX
8
0
10
14.434921875
20
-24.485040625
30
0
0
VERTEX
8
0
10
14.404631250000001
20
-24.428371875
30
0
0
VERTEX
8
0
10
14.368931250000001
20
-24.37494375
30
0
0
VERTEX
8
0
10
14.328165625
20
-24.325271875000002
30
0
0
VERTEX
8
0
10
14.282728125
20
-24.279834375
30
0
0
VERTEX
8
0
10
14.23305625
20
-24.23906875
30
0
0
VERTEX
8
0
10
14.179628125
20
-24.203368750000003
30
0
0
VERTEX
8
0
10
14.122959375
20
-24.173078125
30
0
0
VERTEX
8
0
10
14.063590625
20
-24.1484875
30
0
0
VERTEX
8
0
10
14.0021
20
-24.129834375
30
0
0
VERTEX
8
0
10
13.939078125
20
-24.117296875
30
0
0
VERTEX
8
0
10
13.875128125
20
-24.111
30
0
0
VERTEX
8
0
10
13.810871875
20
-24.111
30
0
0
VERTEX
8
0
10
13.746921875
20
-24.117296875
30
0
0
VERTEX
8
0
10
13.683900000000001
20
-24.129834375
30
0
0
VERTEX
8
0
10
13.622409375
20
-24.1484875
30
0
0
VERTEX
8
0
10
13.563040625000001
20
-24.173078125
30
0
0
VERTEX
8
0
10
13.506371875000001
20
-24.203368750000003
30
0
0
VERTEX
8
0
10
13.452943750000001
20
-24.23906875
30
0
0
VERTEX
8
0
10
13.403271875000002
20
-24.279834375
30
0
0
VERTEX
8
0
10
13.357834375000001
20
-24.325271875000002
30
0
0
VERTEX
8
0
10
13.31706875
20
-24.37494375
30
0
0
VERTEX
8
0
10
13.28136875
20
-24.428371875
30
0
0
VERTEX
8
0
10
13.251078125000001
20
-24.485040625
30
0
0
VERTEX
8
0
10
13.226487500000001
20
-24.544409375
30
0
0
VERTEX
8
0
10
13.207834375000001
20
-24.605900000000002
30
0
0
VERTEX
8
0
10
13.195296875
20
-24.668921875000002
30
0
0
VERTEX
8
0
10
13.189
20
-24.732871875
30
0
0
VERTEX
8
0
10
13.189
20
-24.797128125
30
0
0
VERTEX
8
0
10
13.195296875
20
-24.861078125000002
30
0
0
VERTEX
8
0
10
13.207834375000001
20
-24.924100000000003
30
0
0
VERTEX
8
0
10
13.226487500000001
20
-24.985590625
30
0
0
VERTEX
8
0
10
13.251078125000001
20
-25.044959375
30
0
0
VERTEX
8
0
10
13.28136875
20
-25.101628125
30
0
0
VERTEX
8
0
10
13.31706875
20
-25.15505625
30
0
0
VERTEX
8
0
10
13.357834375000001
20
-25.204728125000003
30
0
0
VERTEX
8
0
10
13.403271875000002
20
-25.250165625
30
0
0
VERTEX
8
0
10
13.452943750000001
20
-25.29093125
30
0
0
VERTEX
8
0
10
13.506371875000001
20
-25.326631250000002
30
0
0
VERTEX
8
0
10
13.563040625000001
20
-25.356921875
30
0
0
VERTEX
8
0
10
13.622409375
20
-25.3815125
30
0
0
VERTEX
8
0
10
13.683900000000001
20
-25.400165625
30
0
0
VERTEX
8
0
10
13.746921875
20
-25.412703125
30
0
0
VERTEX
8
0
10
13.810871875
20
-25.419
30
0
0
VERTEX
8
0
10
13.875128125
20
-25.419
30
0
0
SEQEND
0
POLYLINE
66
1
8
1_copper
10
0.0
20
0.0
30
0.0
70
1
0
VERTEX
8
0
10
6.724600000000001
20
-18.412200000000002
30
0
0
VERTEX
8
0
10
10.3886
20
-18.412200000000002
30
0
0
VERTEX
8
0
10
10.3886
20
-18.4277
30
0
0
VERTEX
8
0
10
11.4046
20
-18.4277
30
0
0
VERTEX
8
0
10
11.4046
20
-17.538700000000002
30
0
0
VERTEX
8
0
10
10.3886
20
-17.538700000000002
30
0
0
VERTEX
8
0
10
10.3886
20
-17.8026
30
0
0
VERTEX
8
0
10
6.724600000000001
20
-17.8026
30
0
0
VERTEX
8
0
10
6.724600000000001
20
-17.453400000000002
30
0
0
VERTEX
8
0
10
5.4166
20
-17.453400000000002
30
0
0
VERTEX
8
0
10
5.4166
20
-18.761400000000002
30
0
0
VERTEX
8
0
10
6.724600000000001
20
-18.761400000000002
30
0
0
SEQEND
0
POLYLINE
66
1
8
1_copper
10
0.0
20
0.0
30
0.0
70
1
0
VERTEX
8
0
10
13.939078125
20
-20.332703125000002
30
0
0
VERTEX
8
0
10
14.0021
20
-20.320165625
30
0
0
VERTEX
8
0
10
14.063590625
20
-20.3015125
30
0
0
VERTEX
8
0
10
14.122959375
20
-20.276921875
30
0
0
VERTEX
8
0
10
14.179628125
20
-20.24663125
30
0
0
VERTEX
8
0
10
14.23305625
20
-20.21093125
30
0
0
VERTEX
8
0
10
14.282728125
20
-20.170165625
30
0
0
VERTEX
8
0
10
14.328165625
20
-20.124728125
30
0
0
VERTEX
8
0
10
14.368931250000001
20
-20.07505625
30
0
0
VERTEX
8
0
10
14.404631250000001
20
-20.021628125
30
0
0
VERTEX
8
0
10
14.434921875
20
-19.964959375
30
0
0
VERTEX
8
0
10
14.4595125
20
-19.905590625000002
30
0
0
VERTEX
8
0
10
14.478165625
20
-19.8441
30
0
0
VERTEX
8
0
10
14.490703125000001
20
-19.781078125
30
0
0
VERTEX
8
0
10
14.497
20
-19.717128125000002
30
0
0
VERTEX
8
0
10
14.497
20
-19.652871875000002
30
0
0
VERTEX
8
0
10
14.490703125000001
20
-19.588921875
30
0
0
VERTEX
8
0
10
14.478165625
20
-19.5259
30
0
0
VERTEX
8
0
10
14.4595125
20
-19.464409375000002
30
0
0
VERTEX
8
0
10
14.434921875
20
-19.405040625
30
0
0
VERTEX
8
0
10
14.404631250000001
20
-19.348371875
30
0
0
VERTEX
8
0
10
14.368931250000001
20
-19.29494375
30
0
0
VERTEX
8
0
10
14.328165625
20
-19.245271875
30
0
0
VERTEX
8
0
10
14.282728125
20
-19.199834375000002
30
0
0
VERTEX
8
0
10
14.23305625
20
-19.15906875
30
0
0
VERTEX
8
0
10
14.179628125
20
-19.12336875
30
0
0
VERTEX
8
0
10
14.122959375
20
-19.093078125
30
0
0
VERTEX
8
0
10
14.063590625
20
-19.0684875
30
0
0
VERTEX
8
0
10
14.0021
20
-19.049834375
30
0
0
VERTEX
8
0
10
13.939078125
20
-19.037296875000003
30
0
0
VERTEX
8
0
10
13.875128125
20
-19.031000000000002
30
0
0
VERTEX
8
0
10
13.810871875
20
-19.031000000000002
30
0
0
VERTEX
8
0
10
13.746921875
20
-19.037296875000003
30
0
0
VERTEX
8
0
10
13.683900000000001
20
-19.049834375
30
0
0
VERTEX
8
0
10
13.622409375
20
-19.0684875
30
0
0
VERTEX
8
0
10
13.563040625000001
20
-19.093078125
30
0
0
VERTEX
8
0
10
13.506371875000001
20
-19.12336875
30
0
0
VERTEX
8
0
10
13.452943750000001
20
-19.15906875
30
0
0
VERTEX
8
0
10
13.403271875000002
20
-19.199834375000002
30
0
0
VERTEX
8
0
10
13.357834375000001
20
-19.245271875
30
0
0
VERTEX
8
0
10
13.31706875
20
-19.29494375
30
0
0
VERTEX
8
0
10
13.28136875
20
-19.348371875
30
0
0
VERTEX
8
0
10
13.251078125000001
20
-19.405040625
30
0
0
VERTEX
8
0
10
13.226487500000001
20
-19.464409375000002
30
0
0
VERTEX
8
0
10
13.207834375000001
20
-19.5259
30
0
0
VERTEX
8
0
10
13.195296875
20
-19.588921875
30
0
0
VERTEX
8
0
10
13.189
20
-19.652871875000002
30
0
0
VERTEX
8
0
10
13.189
20
-19.717128125000002
30
0
0
VERTEX
8
0
10
13.195296875
20
-19.781078125
30
0
0
VERTEX
8
0
10
13.207834375000001
20
-19.8441
30
0
0
VERTEX
8
0
10
13.226487500000001
20
-19.905590625000002
30
0
0
VERTEX
8
0
10
13.251078125000001
20
-19.964959375
30
0
0
VERTEX
8
0
10
13.28136875
20
-20.021628125
30
0
0
VERTEX
8
0
10
13.31706875
20
-20.07505625
30
0
0
VERTEX
8
0
10
13.357834375000001
20
-20.124728125
30
0
0
VERTEX
8
0
10
13.403271875000002
20
-20.170165625
30
0
0
VERTEX
8
0
10
13.452943750000001
20
-20.21093125
30
0
0
VERTEX
8
0
10
13.506371875000001
20
-20.24663125
30
0
0
VERTEX
8
0
10
13.563040625000001
20
-20.276921875
30
0
0
VERTEX
8
0
10
13.622409375
20
-20.3015125
30
0
0
VERTEX
8
0
10
13.683900000000001
20
-20.320165625
30
0
0
VERTEX
8
0
10
13.746921875
20
-20.332703125000002
30
0
0
VERTEX
8
0
10
13.810871875
20
-20.339000000000002
30
0
0
VERTEX
8
0
10
13.875128125
20
-20.339000000000002
30
0
0
SEQEND
0
POLYLINE
66
1
8
16_copper
10
0.0
20
0.0
30
0.0
70
1
0
VERTEX
8
0
10
6.724600000000001
20
-17.453400000000002
30
0
0
VERTEX
8
0
10
5.4166
20
-17.453400000000002
30
0
0
VERTEX
8
0
10
5.4166
20
-18.761400000000002
30
0
0
VERTEX
8
0
10
6.724600000000001
20
-18.761400000000002
30
0
0
VERTEX
8
0
10
6.724600000000001
20
-18.412200000000002
30
0
0
VERTEX
8
0
10
12.13915
20
-18.412200000000002
30
0
0
VERTEX
8
0
10
13.218312500000001
20
-19.4913625
30
0
0
VERTEX
8
0
10
13.207834375000001
20
-19.5259
30
0
0
VERTEX
8
0
10
13.195296875
20
-19.588921875
30
0
0
VERTEX
8
0
10
13.189
20
-19.652871875000002
30
0
0
VERTEX
8
0
10
13.189
20
-19.717128125000002
30
0
0
VERTEX
8
0
10
13.195296875
20
-19.781078125
30
0
0
VERTEX
8
0
10
13.207834375000001
20
-19.8441
30
0
0
VERTEX
8
0
10
13.226487500000001
20
-19.905590625000002
30
0
0
VERTEX
8
0
10
13.251078125000001
20
-19.964959375
30
0
0
VERTEX
8
0
10
13.28136875
20
-20.021628125
30
0
0
VERTEX
8
0
10
13.31706875
20
-20.07505625
30
0
0
VERTEX
8
0
10
13.357834375000001
20
-20.124728125
30
0
0
VERTEX
8
0
10
13.403271875000002
20
-20.170165625
30
0
0
VERTEX
8
0
10
13.452943750000001
20
-20.21093125
30
0
0
VERTEX
8
0
10
13.506371875000001
20
-20.24663125
30
0
0
VERTEX
8
0
10
13.563040625000001
20
-20.276921875
30
0
0
VERTEX
8
0
10
13.622409375
20
-20.3015125
30
0
0
VERTEX
8
0
10
13.683900000000001
20
-20.320165625
30
0
0
VERTEX
8
0
10
13.746921875
20
-20.332703125000002
30
0
0
VERTEX
8
0
10
13.810871875
20
-20.339000000000002
30
0
0
VERTEX
8
0
10
13.875128125
20
-20.339000000000002
30
0
0
VERTEX
8
0
10
13.939078125
20
-20.332703125000002
30
0
0
VERTEX
8
0
10
14.0021
20
-20.320165625
30
0
0
VERTEX
8
0
10
14.063590625
20
-20.3015125
30
0
0
VERTEX
8
0
10
14.122959375
20
-20.276921875
30
0
0
VERTEX
8
0
10
14.179628125
20
-20.24663125
30
0
0
VERTEX
8
0
10
14.23305625
20
-20.21093125
30
0
0
VERTEX
8
0
10
14.282728125
20
-20.170165625
30
0
0
VERTEX
8
0
10
14.328165625
20
-20.124728125
30
0
0
VERTEX
8
0
10
14.368931250000001
20
-20.07505625
30
0
0
VERTEX
8
0
10
14.404631250000001
20
-20.021628125
30
0
0
VERTEX
8
0
10
14.434921875
20
-19.964959375
30
0
0
VERTEX
8
0
10
14.4595125
20
-19.905590625000002
30
0
0
VERTEX
8
0
10
14.478165625
20
-19.8441
30
0
0
VERTEX
8
0
10
14.490703125000001
20
-19.781078125
30
0
0
VERTEX
8
0
10
14.497
20
-19.717128125000002
30
0
0
VERTEX
8
0
10
14.497
20
-19.652871875000002
30
0
0
VERTEX
8
0
10
14.490703125000001
20
-19.588921875
30
0
0
VERTEX
8
0
10
14.478165625
20
-19.5259
30
0
0
VERTEX
8
0
10
14.4595125
20
-19.464409375000002
30
0
0
VERTEX
8
0
10
14.434921875
20
-19.405040625
30
0
0
VERTEX
8
0
10
14.404631250000001
20
-19.348371875
30
0
0
VERTEX
8
0
10
14.368931250000001
20
-19.29494375
30
0
0
VERTEX
8
0
10
14.328165625
20
-19.245271875
30
0
0
VERTEX
8
0
10
14.282728125
20
-19.199834375000002
30
0
0
VERTEX
8
0
10
14.23305625
20
-19.15906875
30
0
0
VERTEX
8
0
10
14.179628125
20
-19.12336875
30
0
0
VERTEX
8
0
10
14.122959375
20
-19.093078125
30
0
0
VERTEX
8
0
10
14.063590625
20
-19.0684875
30
0
0
VERTEX
8
0
10
14.0021
20
-19.049834375
30
0
0
VERTEX
8
0
10
13.939078125
20
-19.037296875000003
30
0
0
VERTEX
8
0
10
13.875128125
20
-19.031000000000002
30
0
0
VERTEX
8
0
10
13.810871875
20
-19.031000000000002
30
0
0
VERTEX
8
0
10
13.746921875
20
-19.037296875000003
30
0
0
VERTEX
8
0
10
13.683900000000001
20
-19.049834375
30
0
0
VERTEX
8
0
10
13.6493625
20
-19.060312500000002
30
0
0
VERTEX
8
0
10
12.463962500000001
20
-17.8749125
30
0
0
VERTEX
8
0
10
12.42515
20
-17.846712500000002
30
0
0
VERTEX
8
0
10
12.382403125
20
-17.824931250000002
30
0
0
VERTEX
8
0
10
12.336775000000001
20
-17.81010625
30
0
0
VERTEX
8
0
10
12.2893875
20
-17.8026
30
0
0
VERTEX
8
0
10
6.724600000000001
20
-17.8026
30
0
0
SEQEND
0
POLYLINE
66
1
8
1_copper
10
0.0
20
0.0
30
0.0
70
1
0
VERTEX
8
0
10
6.166678125000001
20
-20.755103125
30
0
0
VERTEX
8
0
10
6.2297
20
-20.742565625
30
0
0
VERTEX
8
0
10
6.2911906250000005
20
-20.7239125
30
0
0
VERTEX
8
0
10
6.3505593750000005
20
-20.699321875000003
30
0
0
VERTEX
8
0
10
6.4072281250000005
20
-20.66903125
30
0
0
VERTEX
8
0
10
6.46065625
20
-20.63333125
30
0
0
VERTEX
8
0
10
6.510328125
20
-20.592565625000002
30
0
0
VERTEX
8
0
10
6.555765625
20
-20.547128125
30
0
0
VERTEX
8
0
10
6.59653125
20
-20.497456250000003
30
0
0
VERTEX
8
0
10
6.63223125
20
-20.444028125000003
30
0
0
VERTEX
8
0
10
6.662521875
20
-20.387359375000003
30
0
0
VERTEX
8
0
10
6.6871125000000005
20
-20.327990625
30
0
0
VERTEX
8
0
10
6.705765625000001
20
-20.2665
30
0
0
VERTEX
8
0
10
6.718303125
20
-20.203478125
30
0
0
VERTEX
8
0
10
6.724600000000001
20
-20.139528125000002
30
0
0
VERTEX
8
0
10
6.724600000000001
20
-20.075271875000002
30
0
0
VERTEX
8
0
10
6.718303125
20
-20.011321875
30
0
0
VERTEX
8
0
10
6.705765625000001
20
-19.9483
30
0
0
VERTEX
8
0
10
6.6871125000000005
20
-19.886809375000002
30
0
0
VERTEX
8
0
10
6.662521875
20
-19.827440625
30
0
0
VERTEX
8
0
10
6.63223125
20
-19.770771875
30
0
0
VERTEX
8
0
10
6.59653125
20
-19.71734375
30
0
0
VERTEX
8
0
10
6.555765625
20
-19.667671875
30
0
0
VERTEX
8
0
10
6.510328125
20
-19.622234375
30
0
0
VERTEX
8
0
10
6.46065625
20
-19.581468750000003
30
0
0
VERTEX
8
0
10
6.4072281250000005
20
-19.54576875
30
0
0
VERTEX
8
0
10
6.3505593750000005
20
-19.515478125
30
0
0
VERTEX
8
0
10
6.2911906250000005
20
-19.4908875
30
0
0
VERTEX
8
0
10
6.2297
20
-19.472234375
30
0
0
VERTEX
8
0
10
6.166678125000001
20
-19.459696875000002
30
0
0
VERTEX
8
0
10
6.1027281250000005
20
-19.453400000000002
30
0
0
VERTEX
8
0
10
6.038471875
20
-19.453400000000002
30
0
0
VERTEX
8
0
10
5.974521875000001
20
-19.459696875000002
30
0
0
VERTEX
8
0
10
5.9115
20
-19.472234375
30
0
0
VERTEX
8
0
10
5.850009375
20
-19.4908875
30
0
0
VERTEX
8
0
10
5.790640625
20
-19.515478125
30
0
0
VERTEX
8
0
10
5.733971875
20
-19.54576875
30
0
0
VERTEX
8
0
10
5.68054375
20
-19.581468750000003
30
0
0
VERTEX
8
0
10
5.630871875
20
-19.622234375
30
0
0
VERTEX
8
0
10
5.585434375
20
-19.667671875
30
0
0
VERTEX
8
0
10
5.5446687500000005
20
-19.71734375
30
0
0
VERTEX
8
0
10
5.50896875
20
-19.770771875
30
0
0
VERTEX
8
0
10
5.478678125
20
-19.827440625
30
0
0
VERTEX
8
0
10
5.4540875
20
-19.886809375000002
30
0
0
VERTEX
8
0
10
5.435434375
20
-19.9483
30
0
0
VERTEX
8
0
10
5.422896875
20
-20.011321875
30
0
0
VERTEX
8
0
10
5.4166
20
-20.075271875000002
30
0
0
VERTEX
8
0
10
5.4166
20
-20.139528125000002
30
0
0
VERTEX
8
0
10
5.422896875
20
-20.203478125
30
0
0
VERTEX
8
0
10
5.435434375
20
-20.2665
30
0
0
VERTEX
8
0
10
5.4540875
20
-20.327990625
30
0
0
VERTEX
8
0
10
5.478678125
20
-20.387359375000003
30
0
0
VERTEX
8
0
10
5.50896875
20
-20.444028125000003
30
0
0
VERTEX
8
0
10
5.5446687500000005
20
-20.497456250000003
30
0
0
VERTEX
8
0
10
5.585434375
20
-20.547128125
30
0
0
VERTEX
8
0
10
5.630871875
20
-20.592565625000002
30
0
0
VERTEX
8
0
10
5.68054375
20
-20.63333125
30
0
0
VERTEX
8
0
10
5.733971875
20
-20.66903125
30
0
0
VERTEX
8
0
10
5.790640625
20
-20.699321875000003
30
0
0
VERTEX
8
0
10
5.850009375
20
-20.7239125
30
0
0
VERTEX
8
0
10
5.9115
20
-20.742565625
30
0
0
VERTEX
8
0
10
5.974521875000001
20
-20.755103125
30
0
0
VERTEX
8
0
10
6.038471875
20
-20.761400000000002
30
0
0
VERTEX
8
0
10
6.1027281250000005
20
-20.761400000000002
30
0
0
SEQEND
0
POLYLINE
66
1
8
16_copper
10
0.0
20
0.0
30
0.0
70
1
0
VERTEX
8
0
10
6.166678125000001
20
-20.755103125
30
0
0
VERTEX
8
0
10
6.2297
20
-20.742565625
30
0
0
VERTEX
8
0
10
6.2911906250000005
20
-20.7239125
30
0
0
VERTEX
8
0
10
6.3505593750000005
20
-20.699321875000003
30
0
0
VERTEX
8
0
10
6.4072281250000005
20
-20.66903125
30
0
0
VERTEX
8
0
10
6.46065625
20
-20.63333125
30
0
0
VERTEX
8
0
10
6.510328125
20
-20.592565625000002
30
0
0
VERTEX
8
0
10
6.555765625
20
-20.547128125
30
0
0
VERTEX
8
0
10
6.59653125
20
-20.497456250000003
30
0
0
VERTEX
8
0
10
6.63223125
20
-20.444028125000003
30
0
0
VERTEX
8
0
10
6.662521875
20
-20.387359375000003
30
0
0
VERTEX
8
0
10
6.6871125000000005
20
-20.327990625
30
0
0
VERTEX
8
0
10
6.705765625000001
20
-20.2665
30
0
0
VERTEX
8
0
10
6.718303125
20
-20.203478125
30
0
0
VERTEX
8
0
10
6.724600000000001
20
-20.139528125000002
30
0
0
VERTEX
8
0
10
6.724600000000001
20
-20.075271875000002
30
0
0
VERTEX
8
0
10
6.718303125
20
-20.011321875
30
0
0
VERTEX
8
0
10
6.705765625000001
20
-19.9483
30
0
0
VERTEX
8
0
10
6.6871125000000005
20
-19.886809375000002
30
0
0
VERTEX
8
0
10
6.662521875
20
-19.827440625
30
0
0
VERTEX
8
0
10
6.63223125
20
-19.770771875
30
0
0
VERTEX
8
0
10
6.59653125
20
-19.71734375
30
0
0
VERTEX
8
0
10
6.555765625
20
-19.667671875
30
0
0
VERTEX
8
0
10
6.510328125
20
-19.622234375
30
0
0
VERTEX
8
0
10
6.46065625
20
-19.581468750000003
30
0
0
VERTEX
8
0
10
6.4072281250000005
20
-19.54576875
30
0
0
VERTEX
8
0
10
6.3505593750000005
20
-19.515478125
30
0
0
VERTEX
8
0
10
6.2911906250000005
20
-19.4908875
30
0
0
VERTEX
8
0
10
6.2297
20
-19.472234375
30
0
0
VERTEX
8
0
10
6.166678125000001
20
-19.459696875000002
30
0
0
VERTEX
8
0
10
6.1027281250000005
20
-19.453400000000002
30
0
0
VERTEX
8
0
10
6.038471875
20
-19.453400000000002
30
0
0
VERTEX
8
0
10
5.974521875000001
20
-19.459696875000002
30
0
0
VERTEX
8
0
10
5.9115
20
-19.472234375
30
0
0
VERTEX
8
0
10
5.850009375
20
-19.4908875
30
0
0
VERTEX
8
0
10
5.790640625
20
-19.515478125
30
0
0
VERTEX
8
0
10
5.733971875
20
-19.54576875
30
0
0
VERTEX
8
0
10
5.68054375
20
-19.581468750000003
30
0
0
VERTEX
8
0
10
5.630871875
20
-19.622234375
30
0
0
VERTEX
8
0
10
5.585434375
20
-19.667671875
30
0
0
VERTEX
8
0
10
5.5446687500000005
20
-19.71734375
30
0
0
VERTEX
8
0
10
5.50896875
20
-19.770771875
30
0
0
VERTEX
8
0
10
5.478678125
20
-19.827440625
30
0
0
VERTEX
8
0
10
5.4540875
20
-19.886809375000002
30
0
0
VERTEX
8
0
10
5.435434375
20
-19.9483
30
0
0
VERTEX
8
0
10
5.422896875
20
-20.011321875
30
0
0
VERTEX
8
0
10
5.4166
20
-20.075271875000002
30
0
0
VERTEX
8
0
10
5.4166
20
-20.139528125000002
30
0
0
VERTEX
8
0
10
5.422896875
20
-20.203478125
30
0
0
VERTEX
8
0
10
5.435434375
20
-20.2665
30
0
0
VERTEX
8
0
10
5.4540875
20
-20.327990625
30
0
0
VERTEX
8
0
10
5.478678125
20
-20.387359375000003
30
0
0
VERTEX
8
0
10
5.50896875
20
-20.444028125000003
30
0
0
VERTEX
8
0
10
5.5446687500000005
20
-20.497456250000003
30
0
0
VERTEX
8
0
10
5.585434375
20
-20.547128125
30
0
0
VERTEX
8
0
10
5.630871875
20
-20.592565625000002
30
0
0
VERTEX
8
0
10
5.68054375
20
-20.63333125
30
0
0
VERTEX
8
0
10
5.733971875
20
-20.66903125
30
0
0
VERTEX
8
0
10
5.790640625
20
-20.699321875000003
30
0
0
VERTEX
8
0
10
5.850009375
20
-20.7239125
30
0
0
VERTEX
8
0
10
5.9115
20
-20.742565625
30
0
0
VERTEX
8
0
10
5.974521875000001
20
-20.755103125
30
0
0
VERTEX
8
0
10
6.038471875
20
-20.761400000000002
30
0
0
VERTEX
8
0
10
6.1027281250000005
20
-20.761400000000002
30
0
0
SEQEND
0
CIRCLE
8
drills_NPTH
10
30.773000000000003
20
-31.121000000000002
30
0
40
1.1
0
CIRCLE
8
drills_NPTH
10
30.773000000000003
20
-11.121
30
0
40
1.1
0
CIRCLE
8
drills_NPTH
10
0.785
20
-21.116
30
0
40
1.1
0
CIRCLE
8
drills_PTH
10
13.843
20
-17.145
30
0
40
0.4
0
CIRCLE
8
drills_PTH
10
13.843
20
-19.685000000000002
30
0
40
0.4
0
CIRCLE
8
drills_PTH
10
13.843
20
-22.225
30
0
40
0.4
0
CIRCLE
8
drills_PTH
10
13.843
20
-24.765
30
0
40
0.4
0
CIRCLE
8
drills_PTH
10
6.070600000000001
20
-18.107400000000002
30
0
40
0.4
0
CIRCLE
8
drills_PTH
10
6.070600000000001
20
-20.107400000000002
30
0
40
0.4
0
CIRCLE
8
drills_PTH
10
6.070600000000001
20
-22.107400000000002
30
0
40
0.4
0
CIRCLE
8
drills_PTH
10
6.070600000000001
20
-24.107400000000002
30
0
40
0.4
0
ENDSEC
0
EOF